<svg xmlns="http://www.w3.org/2000/svg" viewBox="0 0 800 533" role="img" aria-labelledby="t d"><title id="t">SWE-agent ACIの図版</title><desc id="d">エージェントが簡潔な道具箱を介してコードとテスト環境へ接続する線画</desc><rect width="800" height="533" fill="#f3ecd9"/><g fill="none" stroke="#343b35" stroke-width="4" stroke-linecap="round" stroke-linejoin="round"><circle cx="132" cy="266" r="68" fill="#3f4e63" opacity=".18"/><circle cx="132" cy="246" r="25"/><path d="M91 318c12-43 70-43 82 0M200 266h75"/><rect x="275" y="136" width="244" height="260" rx="10" fill="#58644a" opacity=".08"/><path d="M304 177h80v63h-80zM410 177h80v63h-80zM304 267h80v63h-80zM410 267h80v63h-80z"/><path d="M324 208h40M344 188v40M430 207h40M430 297h40M450 277v40M324 286l40 25M364 286l-40 25"/><path d="M519 214h70M519 318h70"/><rect x="589" y="115" width="142" height="145" rx="7"/><path d="M612 143h95M612 170h64M612 197h84M612 224h50"/><rect x="589" y="292" width="142" height="126" rx="7"/><path d="M611 320h97M611 347h54M611 374h82"/><path d="M649 260v32"/></g><g fill="#a06e3b"><circle cx="275" cy="266" r="8"/><circle cx="519" cy="214" r="8"/><circle cx="519" cy="318" r="8"/></g><g stroke="#58644a" stroke-width="3" opacity=".55"><path d="M50 113h180M50 420h180"/><path d="M560 82h190M560 451h190"/></g></svg>